<?xml version="1.0" encoding="UTF-8"?><svg xmlns="http://www.w3.org/2000/svg" xmlns:xlink="http://www.w3.org/1999/xlink" contentScriptType="text/ecmascript" width="1190.25" zoomAndPan="magnify" contentStyleType="text/css" viewBox="0 0 1190.25 1683.749945" height="1683.749945" preserveAspectRatio="xMidYMid meet" version="1.0"><defs><clipPath id="clip-0"><path d="M 0 0.40625 L 1189.5 0.40625 L 1189.5 1683.09375 L 0 1683.09375 Z M 0 0.40625 " clip-rule="nonzero"/></clipPath><clipPath id="clip-1"><path d="M 48.410156 0.40625 L 1189.5 0.40625 L 1189.5 792.988281 L 48.410156 792.988281 Z M 48.410156 0.40625 " clip-rule="nonzero"/></clipPath><clipPath id="clip-2"><path d="M 48.035156 1037.460938 L 980.089844 1037.460938 L 980.089844 1683.09375 L 48.035156 1683.09375 Z M 48.035156 1037.460938 " clip-rule="nonzero"/></clipPath></defs><g clip-path="url(#clip-0)"><path fill="rgb(100%, 100%, 100%)" d="M 0 0.40625 L 1192.25 0.40625 L 1192.25 1694.296875 L 0 1694.296875 Z M 0 0.40625 " fill-opacity="1" fill-rule="nonzero"/><path fill="rgb(100%, 100%, 100%)" d="M 0 0.40625 L 1190 0.40625 L 1190 1683.800781 L 0 1683.800781 Z M 0 0.40625 " fill-opacity="1" fill-rule="nonzero"/><path fill="rgb(100%, 100%, 100%)" d="M 0 0.40625 L 1190 0.40625 L 1190 1683.800781 L 0 1683.800781 Z M 0 0.40625 " fill-opacity="1" fill-rule="nonzero"/></g><g clip-path="url(#clip-1)"><path fill="rgb(7.449341%, 70.199585%, 39.608765%)" d="M 48.414062 0.40625 L 48.414062 394.367188 C 94.542969 428.847656 137.980469 458.492188 174.078125 478.460938 C 215.371094 501.390625 258.632812 522.523438 302.699219 541.242188 C 492.496094 622.292969 546.238281 648.53125 706.386719 663.039062 C 802.671875 671.546875 852.203125 660.085938 976.882812 710.058594 C 1060.632812 747.582031 1092.875 764.777344 1141.0625 780.359375 C 1158.976562 786.179688 1175.277344 790.300781 1190.417969 792.988281 L 1190.417969 0.40625 Z M 48.414062 0.40625 " fill-opacity="1" fill-rule="nonzero"/></g><g clip-path="url(#clip-2)"><path fill="rgb(7.449341%, 70.199585%, 39.608765%)" d="M 980.085938 1683.824219 L 980.085938 1362.542969 C 942.4375 1334.421875 906.984375 1310.25 877.523438 1293.960938 C 843.824219 1275.265625 808.515625 1258.027344 772.550781 1242.765625 C 617.648438 1176.667969 573.785156 1155.265625 443.078125 1143.4375 C 364.496094 1136.496094 324.070312 1145.847656 222.3125 1105.09375 C 153.960938 1074.488281 127.644531 1060.46875 88.316406 1047.757812 C 73.695312 1043.011719 60.390625 1039.652344 48.039062 1037.460938 L 48.039062 1683.824219 Z M 980.085938 1683.824219 " fill-opacity="1" fill-rule="nonzero"/></g></svg>